<?xml version="1.0" standalone="no"?>
<!DOCTYPE svg PUBLIC "-//W3C//DTD SVG 20010904//EN"
 "http://www.w3.org/TR/2001/REC-SVG-20010904/DTD/svg10.dtd">
<svg version="1.0" xmlns="http://www.w3.org/2000/svg"
 width="1162.000000pt" height="1162.000000pt" viewBox="0 0 1162.000000 1162.000000"
 preserveAspectRatio="xMidYMid meet">
<metadata>
Created by potrace 1.14, written by Peter Selinger 2001-2017
</metadata>
<g transform="translate(0.000000,1162.000000) scale(0.100000,-0.100000)"
fill="#000000" stroke="none">
<path d="M5480 11039 c-895 -60 -1788 -363 -2533 -861 -845 -565 -1516 -1375
-1907 -2303 -546 -1298 -546 -2752 0 -4050 521 -1237 1528 -2244 2765 -2765
1298 -546 2752 -546 4050 0 1237 521 2244 1528 2765 2765 546 1298 546 2752 0
4050 -521 1237 -1528 2244 -2765 2765 -747 314 -1569 453 -2375 399z m-1705
-2500 c88 -25 135 -121 121 -253 -12 -116 -66 -170 -182 -182 -186 -20 -277
69 -261 257 9 102 39 148 114 175 46 16 154 18 208 3z m-1340 -259 c312 -35
537 -195 640 -453 32 -80 34 -77 -75 -130 -55 -27 -77 -32 -137 -32 -84 0
-105 14 -156 105 -39 70 -128 158 -188 187 -123 61 -341 55 -455 -12 -124 -73
-151 -264 -53 -370 52 -56 144 -100 359 -170 527 -173 691 -276 746 -470 21
-75 21 -227 -1 -310 -52 -201 -219 -371 -438 -446 -342 -118 -819 -55 -1024
135 -73 67 -109 132 -124 222 -26 155 45 237 227 260 l52 6 7 -40 c18 -106
104 -227 200 -282 149 -85 394 -94 552 -19 180 85 228 306 95 438 -73 71 -151
105 -504 215 -435 136 -613 325 -595 631 10 153 60 261 169 359 152 138 428
207 703 176z m2601 -175 c125 -310 216 -576 280 -825 19 -74 37 -142 40 -150
3 -8 30 68 59 170 67 231 136 430 254 728 l92 232 214 0 c195 0 214 -2 219
-17 156 -536 234 -1103 261 -1915 l6 -178 -194 0 -194 0 -7 53 c-3 28 -6 115
-6 193 0 376 -43 913 -102 1283 l-21 134 -29 -74 c-91 -235 -236 -710 -359
-1171 l-34 -128 -152 0 -152 0 -10 38 c-66 261 -151 575 -191 709 -67 225
-202 615 -210 605 -10 -11 -58 -364 -80 -587 -24 -243 -38 -459 -45 -705 -3
-102 -8 -222 -11 -267 l-6 -83 -189 0 -189 0 0 43 c0 78 20 490 30 632 27 363
66 665 126 965 34 169 100 445 110 462 3 5 101 7 217 6 l212 -3 61 -150z
m3104 15 l0 -140 -455 0 -455 0 0 -305 0 -305 385 0 386 0 -3 -137 -3 -138
-382 -3 -383 -2 0 -330 0 -330 470 0 470 0 0 -27 c-1 -60 -21 -167 -37 -194
-36 -60 -23 -59 -687 -59 l-606 0 0 1048 c0 577 3 1052 7 1055 3 4 296 7 650
7 l643 0 0 -140z m1332 111 c333 -69 574 -278 678 -589 76 -228 84 -566 19
-797 -95 -334 -339 -579 -659 -658 -125 -32 -208 -37 -597 -37 l-393 0 0 1048
c0 577 3 1052 8 1056 4 5 196 6 427 3 371 -5 431 -8 517 -26z m-5612 -1251 l0
-830 -185 0 -185 0 0 830 0 830 185 0 185 0 0 -830z m5435 -2110 c22 -21 25
-32 25 -89 0 -113 -43 -168 -142 -178 -116 -12 -165 31 -155 139 10 115 64
161 179 156 54 -3 72 -8 93 -28z m-3104 15 c3 -2 -23 -202 -57 -442 -35 -241
-63 -450 -64 -465 0 -27 1 -28 48 -22 104 14 114 23 278 245 l150 204 138 3
c118 2 138 0 133 -12 -11 -27 -371 -478 -394 -493 l-22 -15 47 -31 c45 -31 51
-41 170 -291 67 -142 121 -260 119 -262 -2 -2 -58 -5 -125 -6 -111 -3 -123 -1
-142 17 -11 12 -58 106 -105 209 -47 104 -90 195 -97 203 -25 31 -71 45 -145
45 -41 -1 -77 -2 -79 -5 -2 -2 -19 -107 -37 -233 l-33 -229 -122 -3 c-100 -2
-122 0 -122 12 0 15 205 1489 215 1544 l6 32 118 0 c65 0 120 -2 122 -5z
m3679 -11 c0 -18 -208 -1506 -216 -1546 l-6 -28 -125 0 -125 0 6 28 c8 38 216
1530 216 1547 0 12 22 15 125 15 107 0 125 -2 125 -16z m-7451 -201 c25 -90
92 -409 111 -528 11 -71 23 -145 26 -164 5 -32 11 -22 78 135 77 180 167 363
248 507 l50 88 141 -3 142 -3 7 -49 c17 -117 28 -352 28 -573 -1 -231 -6 -343
-31 -640 l-12 -143 -133 0 -133 0 4 28 c24 133 71 880 63 1002 l-3 55 -82
-163 c-70 -141 -188 -407 -290 -657 l-29 -70 -97 -3 c-72 -2 -99 1 -102 10 -2
7 -14 92 -25 188 -30 247 -114 720 -126 707 -18 -17 -128 -440 -168 -642 -22
-109 -76 -431 -76 -449 0 -4 -58 -6 -128 -6 l-129 0 23 135 c79 466 208 947
330 1223 l23 52 140 0 140 0 10 -37z m4984 30 c3 -5 -4 -64 -14 -133 -10 -69
-19 -133 -19 -142 0 -15 14 -18 113 -20 l112 -3 -1 -25 c-1 -14 -5 -51 -9 -82
l-6 -58 -120 0 c-65 0 -119 -3 -119 -7 0 -5 -20 -152 -45 -328 -53 -378 -54
-397 -20 -430 20 -20 34 -25 78 -25 29 0 77 7 106 16 64 19 81 9 81 -45 0 -70
-55 -111 -175 -132 -152 -26 -282 11 -335 96 -42 69 -42 102 11 479 27 193 49
356 49 363 0 10 -23 13 -88 13 l-88 0 11 83 10 82 93 3 c50 1 92 4 92 5 0 2 9
68 20 147 11 79 20 145 20 147 0 7 239 2 243 -4z m-3238 -295 c147 -32 249
-134 285 -287 16 -70 7 -302 -15 -386 -9 -33 -34 -98 -56 -143 -30 -66 -54
-99 -111 -156 -83 -81 -151 -119 -253 -141 -177 -37 -351 1 -449 98 -91 91
-121 192 -113 382 11 264 103 458 270 566 120 78 280 102 442 67z m1135 2
c163 -31 282 -158 284 -303 l1 -62 -65 -22 c-36 -12 -75 -22 -87 -23 -34 0
-61 33 -68 83 -10 65 -44 118 -94 146 -35 19 -57 24 -116 23 -209 -2 -324
-167 -328 -467 -2 -216 80 -325 244 -325 116 0 188 52 256 184 l25 48 46 -5
c69 -8 102 -48 102 -124 0 -102 -48 -166 -166 -226 -144 -73 -396 -73 -539 0
-157 81 -236 255 -221 483 15 240 104 414 263 520 112 74 297 102 463 70z
m3135 -5 c101 -28 172 -92 203 -184 20 -56 14 -162 -23 -429 -39 -280 -41
-328 -19 -387 8 -22 16 -44 17 -50 4 -18 -92 -56 -156 -62 -57 -5 -66 -3 -91
19 -21 18 -29 36 -33 71 -3 26 -8 47 -11 47 -2 0 -24 -18 -47 -39 -154 -142
-417 -148 -535 -13 -48 54 -63 103 -64 202 0 90 28 154 93 213 96 87 282 143
533 163 86 7 86 7 92 37 3 16 6 58 6 92 0 117 -57 161 -200 152 -78 -4 -150
-32 -245 -97 -55 -37 -67 -40 -102 -25 -22 9 -38 29 -59 71 l-28 57 35 29 c45
39 183 104 261 124 131 34 270 37 373 9z m808 -2 c2 -5 -30 -253 -72 -553
l-76 -545 -123 -3 c-122 -3 -122 -3 -122 20 0 24 136 1012 146 1061 l6 27 118
0 c65 0 121 -3 123 -7z"/>
<path d="M8910 7205 l0 -777 203 4 c184 5 209 7 283 31 198 65 342 224 398
442 63 242 33 590 -67 780 -42 78 -136 172 -214 213 -106 55 -194 72 -410 79
l-193 6 0 -778z"/>
<path d="M3903 4225 c-117 -59 -187 -216 -200 -445 -12 -228 47 -325 197 -325
138 1 236 100 286 290 14 53 19 106 19 220 0 136 -2 154 -22 192 -35 64 -75
87 -158 91 -60 3 -78 -1 -122 -23z"/>
<path d="M8255 3810 c-164 -19 -261 -63 -303 -135 -31 -54 -27 -142 8 -180 68
-73 190 -52 301 52 66 61 85 97 94 168 3 33 9 70 12 83 6 25 0 25 -112 12z"/>
</g>
</svg>
